<?xml version="1.0" standalone="no"?>
<!DOCTYPE svg PUBLIC "-//W3C//DTD SVG 20010904//EN"
 "http://www.w3.org/TR/2001/REC-SVG-20010904/DTD/svg10.dtd">
<svg version="1.0" xmlns="http://www.w3.org/2000/svg"
 width="282.000000pt" height="177.000000pt" viewBox="0 0 282.000000 177.000000"
 preserveAspectRatio="xMidYMid meet">

<g transform="translate(0.000000,177.000000) scale(0.100000,-0.100000)"
fill="#000000" stroke="none">
<path d="M1010 1756 c-124 -46 -319 -174 -426 -281 -64 -63 -85 -92 -103 -138
-18 -50 -44 -205 -35 -216 9 -10 25 17 44 77 55 171 110 235 319 376 103 69
205 119 291 142 85 22 258 22 337 -1 67 -20 144 -57 162 -79 7 -9 34 -26 59
-38 97 -48 447 -306 564 -416 82 -78 109 -131 141 -280 l24 -111 -51 -35 c-70
-48 -189 -102 -261 -120 -92 -22 -261 -28 -465 -17 -192 11 -286 24 -430 61
-135 34 -301 92 -297 103 2 6 27 18 56 28 69 24 200 91 264 136 184 128 341
254 424 340 57 57 87 108 102 170 5 21 12 46 16 56 5 12 2 17 -9 17 -11 0 -27
-24 -47 -67 -17 -38 -41 -82 -55 -100 -27 -36 -185 -173 -284 -248 -36 -27
-67 -52 -70 -55 -15 -19 -216 -144 -271 -169 -90 -41 -194 -71 -243 -71 -23 0
-47 -5 -53 -11 -17 -17 -4 -39 23 -39 13 0 78 -21 146 -46 134 -50 170 -61
328 -100 296 -72 729 -83 920 -22 72 23 192 80 229 109 13 11 28 19 34 19 18
0 0 -180 -25 -255 -19 -58 -35 -81 -97 -147 -67 -70 -120 -141 -121 -160 -1
-31 92 17 178 91 103 88 151 212 152 387 0 148 -45 336 -105 439 -32 54 -121
149 -187 198 -26 20 -64 49 -85 66 -83 67 -252 190 -322 235 -40 26 -84 60
-97 76 -13 15 -61 46 -107 69 l-83 41 -224 -1 c-158 0 -235 -4 -260 -13z"/>
<path d="M1185 1570 c-10 -11 -24 -20 -31 -20 -38 0 -42 -93 -7 -132 30 -33
60 -40 98 -22 59 28 76 126 29 169 -33 30 -65 32 -89 5z m62 -116 c-3 -3 -12
-4 -19 -1 -8 3 -5 6 6 6 11 1 17 -2 13 -5z"/>
<path d="M385 1070 c-16 -18 -17 -30 -7 -143 16 -183 66 -307 191 -472 64 -84
204 -222 281 -277 59 -41 174 -98 199 -98 28 0 -10 33 -85 76 -139 78 -333
274 -426 429 -83 139 -105 218 -109 388 -3 122 -9 135 -44 97z"/>
<path d="M602 1067 c-44 -47 -20 -100 43 -95 l40 3 0 55 c0 54 -1 55 -30 58
-22 2 -37 -4 -53 -21z"/>
<path d="M1990 182 c0 -5 6 -15 14 -21 7 -6 23 -45 35 -86 13 -41 27 -75 32
-75 6 0 8 8 5 18 -3 9 -15 47 -26 84 -13 42 -28 72 -40 78 -11 6 -20 7 -20 2z"/>
<path d="M791 83 c-1 -7 -17 -28 -38 -48 -35 -34 -36 -35 -11 -35 18 0 30 9
43 33 10 19 15 40 12 48 -3 8 -6 9 -6 2z"/>
</g>
</svg>